<mxfile host="Electron" modified="2023-11-29T09:56:35.665Z" agent="Mozilla/5.0 (Macintosh; Intel Mac OS X 10_15_7) AppleWebKit/537.36 (KHTML, like Gecko) draw.io/22.1.2 Chrome/114.0.5735.289 Electron/25.9.4 Safari/537.36" etag="7ajRN5MqtNxmReuW9FeV" version="22.1.2" type="device">
  <diagram name="Page-1" id="vjeRUanridM_tBdjkbqb">
    <mxGraphModel dx="1853" dy="658" grid="1" gridSize="10" guides="1" tooltips="1" connect="1" arrows="1" fold="1" page="1" pageScale="1" pageWidth="827" pageHeight="1169" math="0" shadow="0">
      <root>
        <mxCell id="0" />
        <mxCell id="1" parent="0" />
        <mxCell id="7iATSf0fPzcV95ndhAzM-1" value="" style="shape=flexArrow;endArrow=classic;startArrow=classic;html=1;rounded=0;" edge="1" parent="1">
          <mxGeometry width="100" height="100" relative="1" as="geometry">
            <mxPoint x="40" y="280" as="sourcePoint" />
            <mxPoint x="800" y="280" as="targetPoint" />
          </mxGeometry>
        </mxCell>
        <mxCell id="7iATSf0fPzcV95ndhAzM-3" value="Weder theoretische noch praktische Erfahrung" style="rounded=0;whiteSpace=wrap;html=1;" vertex="1" parent="1">
          <mxGeometry y="310" width="120" height="60" as="geometry" />
        </mxCell>
        <mxCell id="7iATSf0fPzcV95ndhAzM-4" value="Erstes theoretisches Wissen aber keine praktische Erfahrung" style="rounded=0;whiteSpace=wrap;html=1;" vertex="1" parent="1">
          <mxGeometry x="240" y="310" width="120" height="60" as="geometry" />
        </mxCell>
        <mxCell id="7iATSf0fPzcV95ndhAzM-5" value="Fortgeschrittenes VerstÃ¤ndnis und erste PoCs und Tutorials umgesetzt" style="rounded=0;whiteSpace=wrap;html=1;" vertex="1" parent="1">
          <mxGeometry x="480" y="310" width="120" height="60" as="geometry" />
        </mxCell>
        <mxCell id="7iATSf0fPzcV95ndhAzM-6" value="Zertifizierter Cloud Architekt&amp;nbsp;" style="rounded=0;whiteSpace=wrap;html=1;" vertex="1" parent="1">
          <mxGeometry x="720" y="310" width="120" height="60" as="geometry" />
        </mxCell>
        <mxCell id="7iATSf0fPzcV95ndhAzM-7" value="Wie gut kennen Sie sich mit Cloud Computing aus?" style="text;html=1;strokeColor=none;fillColor=none;align=center;verticalAlign=middle;whiteSpace=wrap;rounded=0;fontStyle=1;fontSize=42;" vertex="1" parent="1">
          <mxGeometry x="-56" y="180" width="940" height="30" as="geometry" />
        </mxCell>
      </root>
    </mxGraphModel>
  </diagram>
</mxfile>
